<svg xmlns="http://www.w3.org/2000/svg" width="64" height="64" viewBox="0 0 24 24" fill="none">
  <defs>
    <linearGradient id="g" x1="0" y1="0" x2="1" y2="1">
      <stop offset="0%" stop-color="#2563eb"/>
      <stop offset="100%" stop-color="#1d4ed8"/>
    </linearGradient>
  </defs>
  <rect x="0" y="0" width="24" height="24" rx="6" fill="url(#g)"/>
  <g transform="translate(4 4)" stroke="#ffffff" stroke-width="1.6" stroke-linecap="round" stroke-linejoin="round">
    <path d="M8 8c1.657 0 3-1.343 3-3S9.657 2 8 2 5 3.343 5 5s1.343 3 3 3Z"/>
    <path d="M8 8l-2.5 2.5M8 8l2.5 2.5"/>
    <path d="M4.5 12.5c-.5 1.5-2 3-3 3 0-1 1.5-2.5 3-3Z" fill="#ffffff" stroke="none"/>
    <path d="M11.5 12.5c.5 1.5 2 3 3 3 0-1-1.5-2.5-3-3Z" fill="#ffffff" stroke="none"/>
  </g>
</svg>

